<svg width="24" height="24" viewBox="0 0 24 24" fill="none" xmlns="http://www.w3.org/2000/svg">
<path d="M20.325 8.30005V6.45005C20.325 5.71407 20.0326 5.00824 19.5122 4.48783C18.9918 3.96741 18.286 3.67505 17.55 3.67505H14.775M14.775 20.3251H17.55C18.286 20.3251 18.9918 20.0327 19.5122 19.5123C20.0326 18.9919 20.325 18.286 20.325 17.55V15.7M3.675 15.7V17.55C3.675 18.286 3.96737 18.9919 4.48778 19.5123C5.00819 20.0327 5.71402 20.3251 6.45 20.3251H9.225M9.225 3.67505H6.45C5.71402 3.67505 5.00819 3.96741 4.48778 4.48783C3.96737 5.00824 3.675 5.71407 3.675 6.45005V8.30005M2.75 12H21.25" stroke="#2E2E2E" stroke-width="1.5" stroke-linecap="round" stroke-linejoin="round"/>
</svg>
